# xmcd
#
# Track frame offsets:
#	150
#	22862
#	47475
#	69923
#	92297
#	119796
#	159456
#	183842
#	209177
#	231171
#	262305
#
# Disc length: 3799 seconds
#
# Revision: 1
# Processed by: cddbd v1.5.2PL0 Copyright (c) Steve Scherf et al.
# Submitted via: audiograbber 1.83.01
#
DISCID=940ed50b
DTITLE=Yogev Shetrit - New Path
DYEAR=2016
DGENRE=Jazz
TTITLE0=Ayala
TTITLE1=I Will Wait
TTITLE2=Cafe Atlas
TTITLE3=New Path       
TTITLE4=Happy Melody  
TTITLE5=Mama Dialy (My Mother)
TTITLE6=Love Song  
TTITLE7=I Know Why   
TTITLE8=Tziona          
TTITLE9=A Song For Revi 
TTITLE10=Street Party   
EXTD=YEAR: 2016
EXTT0=
EXTT1=
EXTT2=
EXTT3=
EXTT4=
EXTT5=
EXTT6=
EXTT7=
EXTT8=
EXTT9=
EXTT10=
PLAYORDER=
